<?xml version="1.0" standalone="no"?>
<!DOCTYPE svg PUBLIC "-//W3C//DTD SVG 1.1//EN" "http://www.w3.org/Graphics/SVG/1.1/DTD/svg11.dtd" >
<svg xmlns="http://www.w3.org/2000/svg">
<metadata></metadata>
<defs>
<font id="AvenirLTStd45BookRegular" horiz-adv-x="1138" >
<font-face units-per-em="2048" ascent="1548" descent="-500" />
<missing-glyph horiz-adv-x="569" />
<glyph horiz-adv-x="0" />
<glyph horiz-adv-x="2048" />
<glyph unicode=" "  horiz-adv-x="569" />
<glyph unicode="&#x09;" horiz-adv-x="569" />
<glyph unicode="&#xa0;" horiz-adv-x="569" />
<glyph unicode="!" horiz-adv-x="569" d="M174 98q0 44 31.5 77.5t79.5 33.5t79 -33.5t31 -77.5t-31 -77t-79 -33t-79.5 33t-31.5 77zM211 393v1057h147v-1057h-147z" />
<glyph unicode="&#x22;" horiz-adv-x="1062" d="M322 969v481h122v-481h-122zM618 969v481h123v-481h-123z" />
<glyph unicode="#" d="M72 438v123h225l45 332h-221v123h239l60 434h125l-60 -434h273l59 434h125l-59 -434h184v-123h-203l-45 -332h195v-123h-211l-62 -438h-125l62 438h-272l-62 -438h-125l62 438h-209zM422 561h272l45 332h-272z" />
<glyph unicode="$" d="M88 188l123 88q65 -81 153 -129.5t156 -46.5v572q-80 25 -142 54t-123.5 76t-95.5 117.5t-34 159.5q0 86 33.5 160.5t89 124t126 80t146.5 35.5v143h98v-139q92 0 168 -26.5t121 -61t90 -86.5l-114 -99q-41 69 -114 104.5t-151 33.5v-547q59 -21 101.5 -39.5t94.5 -46 t88 -60t68 -74.5t48 -97t16 -119q0 -168 -118 -277.5t-298 -120.5v-139h-98v135q-137 7 -252 70t-180 155zM272 1083q0 -50 19 -90.5t55.5 -70.5t77 -51.5t96.5 -41.5v517q-108 -7 -178 -82t-70 -181zM618 102q34 0 68.5 7.5t71 27t64.5 48t46 75.5t19 105q1 99 -71.5 169 t-197.5 109v-541z" />
<glyph unicode="%" horiz-adv-x="1705" d="M78 1116q0 151 104 255t256 104t256.5 -104t104.5 -255t-104.5 -254.5t-256.5 -103.5t-256 103.5t-104 254.5zM201 1116q0 -100 69.5 -167.5t167.5 -67.5t168 67.5t70 167.5t-70 168t-168 68t-167.5 -68t-69.5 -168zM338 -8l924 1521l104 -55l-922 -1521zM907 334 q0 151 104.5 254.5t256.5 103.5t256 -103.5t104 -254.5t-104 -255t-256 -104t-256.5 104t-104.5 255zM1030 334q0 -100 70 -168t168 -68t167.5 68t69.5 168t-69.5 167.5t-167.5 67.5t-168 -67.5t-70 -167.5z" />
<glyph unicode="&#x26;" horiz-adv-x="1441" d="M98 377q0 272 330 428q-170 182 -170 340q0 159 102.5 250.5t260.5 91.5q151 0 250.5 -86.5t99.5 -239.5q0 -55 -19.5 -105t-49 -87t-75 -73.5t-85 -60.5t-91.5 -51l334 -344l199 344h166l-267 -448l326 -336h-209l-205 213q-96 -125 -199 -187.5t-243 -62.5 q-123 0 -225.5 48.5t-166 144t-63.5 221.5zM258 375q0 -120 87.5 -198.5t209.5 -78.5q75 0 140.5 30.5t109.5 72.5t98 110l-383 402q-146 -81 -204 -154.5t-58 -183.5zM406 1139q0 -65 51 -141t100 -119q9 5 42.5 23.5t47 26.5t43 27t43 31.5t34.5 34.5t31 41t17.5 45 t7.5 53q0 85 -57.5 138t-142.5 53q-93 0 -155 -58.5t-62 -154.5z" />
<glyph unicode="'" horiz-adv-x="532" d="M205 969v481h123v-481h-123z" />
<glyph unicode="(" horiz-adv-x="532" d="M111 590q0 240 76.5 480.5t220.5 436.5l108 -69q-141 -227 -205.5 -417.5t-64.5 -430.5q0 -239 61.5 -422t200.5 -414l-109 -82q-137 191 -212.5 430.5t-75.5 487.5z" />
<glyph unicode=")" horiz-adv-x="532" d="M16 -258q141 228 206 418t65 430q0 239 -61.5 421.5t-200.5 413.5l108 82q137 -192 213 -431t76 -486q0 -240 -76.5 -481t-220.5 -437z" />
<glyph unicode="*" horiz-adv-x="909" d="M63 1135l43 114l287 -92v293h123v-293l287 92l43 -114l-289 -93l184 -247l-98 -74l-188 254l-189 -254l-98 74l184 247z" />
<glyph unicode="+" horiz-adv-x="1363" d="M160 559v123h461v461h122v-461h461v-123h-461v-461h-122v461h-461z" />
<glyph unicode="," horiz-adv-x="569" d="M133 -287l137 482h166l-166 -482h-137z" />
<glyph unicode="-" horiz-adv-x="681" d="M78 424v135h526v-135h-526z" />
<glyph unicode="." horiz-adv-x="569" d="M174 98q0 44 31.5 77.5t79.5 33.5t79 -33.5t31 -77.5t-31 -77t-79 -33t-79.5 33t-31.5 77z" />
<glyph unicode="/" horiz-adv-x="757" d="M10 2l621 1485l117 -41l-619 -1483z" />
<glyph unicode="0" d="M78 725q0 75 5 143.5t19.5 145.5t37.5 141.5t61.5 125t88.5 102.5t121.5 67t157.5 25t158 -25t122 -67t88.5 -102.5t61.5 -125t37.5 -141.5t19.5 -145.5t5 -143.5t-5 -143.5t-19.5 -145.5t-37.5 -141.5t-61.5 -125t-88.5 -102.5t-122 -67t-158 -25t-157.5 25t-121.5 67 t-88.5 102.5t-61.5 125t-37.5 141.5t-19.5 145.5t-5 143.5zM225 725q0 -614 344 -614t344 614t-344 614t-344 -614z" />
<glyph unicode="1" d="M213 1147l369 303h131v-1450h-148v1266l-260 -230z" />
<glyph unicode="2" d="M98 0v170l578 588q42 42 67.5 72t56 73.5t45.5 89t15 92.5q0 117 -79.5 185.5t-200.5 68.5q-109 0 -187.5 -61.5t-101.5 -165.5l-156 16q31 160 148.5 253.5t285.5 93.5q120 0 217.5 -41t159.5 -128.5t62 -207.5q0 -54 -10.5 -103.5t-34.5 -96.5t-46 -83t-63 -82 t-66 -71.5t-73 -73.5l-457 -453h762v-135h-922z" />
<glyph unicode="3" d="M78 268l155 47q37 -105 111.5 -154.5t202.5 -49.5q127 0 215 80.5t88 205.5q0 79 -30.5 138t-83.5 92t-116.5 49t-138.5 16h-63v135h76q140 0 228.5 65.5t88.5 201.5q0 117 -71 181t-197 64q-90 0 -161.5 -41t-115.5 -118l-129 65q127 230 402 230q115 0 209 -43 t152 -130t58 -204q0 -115 -71 -207t-174 -125l6 -4q124 -26 201 -129t77 -240q0 -130 -63.5 -226.5t-167 -144t-231.5 -47.5q-343 0 -457 293z" />
<glyph unicode="4" d="M78 344v168l586 938h188v-971h209v-135h-209v-344h-147v344h-627zM201 479h504v824h-5z" />
<glyph unicode="5" d="M98 233l146 64q42 -86 116 -136t168 -50q138 0 233 94t95 229q0 153 -100 248.5t-256 95.5q-151 0 -301 -80l14 752h739v-135h-594l-8 -436q83 34 195 34q202 0 330.5 -131.5t128.5 -332.5q0 -209 -138.5 -341.5t-349.5 -132.5q-139 0 -249.5 67t-168.5 191z" />
<glyph unicode="6" d="M98 424q0 111 31.5 200t93.5 189l391 637h174l-395 -623l4 -4q33 23 90 36t111 13q190 0 316 -127t126 -321q0 -198 -133 -323.5t-338 -125.5t-338 125.5t-133 323.5zM246 424q0 -138 90.5 -225.5t232.5 -87.5q143 0 233.5 87.5t90.5 225.5t-90.5 225.5t-233.5 87.5 q-142 0 -232.5 -87.5t-90.5 -225.5z" />
<glyph unicode="7" d="M111 1315v135h860v-135l-584 -1315h-166l596 1315h-706z" />
<glyph unicode="8" d="M111 387q0 142 74 245.5t196 135.5v4q-95 32 -156 123t-61 201q0 168 118.5 273.5t286.5 105.5t287 -105.5t119 -273.5q0 -110 -61 -201t-156 -123v-4q122 -32 196 -135.5t74 -245.5q0 -122 -64 -217.5t-168 -145t-227 -49.5t-226.5 49.5t-167.5 145t-64 217.5zM258 408 q0 -129 86 -213t225 -84t225.5 84t86.5 213t-86.5 213t-225.5 84t-225 -84t-86 -213zM311 1083q0 -111 74 -183.5t184 -72.5t184 72.5t74 183.5t-74 183.5t-184 72.5t-184 -72.5t-74 -183.5z" />
<glyph unicode="9" d="M98 1026q0 198 133 323.5t338 125.5t338 -125.5t133 -323.5q0 -111 -31.5 -200t-93.5 -189l-391 -637h-174l395 623l-4 4q-33 -23 -89.5 -36t-110.5 -13q-190 0 -316.5 127t-126.5 321zM246 1026q0 -138 90.5 -225.5t232.5 -87.5q143 0 233.5 87.5t90.5 225.5 t-90.5 225.5t-233.5 87.5q-142 0 -232.5 -87.5t-90.5 -225.5z" />
<glyph unicode=":" horiz-adv-x="569" d="M174 98q0 44 31.5 77.5t79.5 33.5t79 -33.5t31 -77.5t-31 -77t-79 -33t-79.5 33t-31.5 77zM174 858q0 44 31.5 77.5t79.5 33.5t79 -33.5t31 -77.5t-31 -77t-79 -33t-79.5 33t-31.5 77z" />
<glyph unicode=";" horiz-adv-x="569" d="M133 -287l137 482h166l-166 -482h-137zM193 858q0 44 31 77.5t79 33.5t79.5 -33.5t31.5 -77.5t-31.5 -77t-79.5 -33t-79 33t-31 77z" />
<glyph unicode="&#x3c;" horiz-adv-x="1363" d="M160 573v95l1044 487v-123l-878 -411l878 -412v-123z" />
<glyph unicode="=" horiz-adv-x="1363" d="M160 406v122h1044v-122h-1044zM160 713v123h1044v-123h-1044z" />
<glyph unicode="&#x3e;" horiz-adv-x="1363" d="M160 86v123l878 412l-878 411v123l1044 -487v-95z" />
<glyph unicode="?" horiz-adv-x="987" d="M96 1135q23 158 136.5 249t275.5 91q170 0 279.5 -95.5t109.5 -263.5q0 -71 -18.5 -128t-47.5 -95t-64.5 -71.5t-71 -65t-64.5 -65.5t-47.5 -83.5t-18.5 -109.5v-105h-147v170q1 45 19.5 87.5t48 76.5t65 67t70.5 67t64 69t47 80t18 94q0 104 -67 169.5t-173 65.5 q-102 0 -171.5 -61t-88.5 -162zM393 98q0 44 31.5 77.5t79.5 33.5t79 -33.5t31 -77.5t-31 -77t-79 -33t-79.5 33t-31.5 77z" />
<glyph unicode="@" horiz-adv-x="1638" d="M88 725q0 210 104 385.5t280 276t382 100.5q189 0 347.5 -79.5t253.5 -224.5t95 -325q0 -102 -31 -195.5t-81.5 -161t-113 -118.5t-126 -76.5t-119.5 -25.5q-129 0 -143 120h-4q-55 -58 -114 -89t-142 -31q-130 0 -210.5 85t-80.5 222q0 106 35 209.5t95.5 185t152 132 t196.5 50.5q176 0 234 -168h4l45 129h115l-172 -577q-19 -66 -19 -105q0 -16 13 -28.5t34 -12.5q70 0 142 63.5t119.5 168.5t47.5 215q0 149 -83.5 271.5t-214.5 188.5t-275 66q-172 0 -321 -91.5t-235.5 -241.5t-86.5 -318t86.5 -318t235.5 -241.5t321 -91.5 q154 0 295 66.5t223 181.5h129q-98 -167 -272 -263t-375 -96q-206 0 -382 100.5t-280 276t-104 385.5zM520 600q0 -86 54.5 -141.5t138.5 -55.5t159.5 74.5t116.5 174.5t41 186t-50 145t-116 59q-95 -4 -176 -75t-124.5 -170.5t-43.5 -196.5z" />
<glyph unicode="A" horiz-adv-x="1404" d="M0 0l631 1450h143l631 -1450h-172l-160 381h-741l-160 -381h-172zM387 516h629l-314 762z" />
<glyph unicode="B" horiz-adv-x="1290" d="M197 0v1450h432q95 0 175 -19t147.5 -60t106 -114t38.5 -172q0 -120 -67.5 -204.5t-188.5 -112.5v-4q153 -12 240 -108.5t87 -254.5q0 -24 -4.5 -52t-19 -68t-37 -77.5t-64 -75t-94.5 -65.5t-133 -45.5t-176 -17.5h-442zM344 135h283q169 0 275 69.5t106 205.5 q0 282 -363 282h-301v-557zM344 815h297q56 0 106 14t93.5 42.5t69.5 79.5t26 118q0 23 -5 48.5t-24 63t-50 65.5t-91 48.5t-139 20.5h-283v-500z" />
<glyph unicode="C" horiz-adv-x="1441" d="M98 725q0 217 98.5 391.5t271.5 272.5t386 98q144 0 277.5 -57t224.5 -173l-129 -96q-45 74 -153.5 132.5t-219.5 58.5q-136 0 -250 -51t-188.5 -137.5t-116 -199.5t-41.5 -239t41.5 -239t116 -199.5t188.5 -137.5t250 -51q275 0 416 217l121 -86q-75 -117 -219 -191.5 t-318 -74.5q-213 0 -386 98t-271.5 272.5t-98.5 391.5z" />
<glyph unicode="D" horiz-adv-x="1517" d="M176 0v1450h481q110 0 218 -28.5t206.5 -88.5t173.5 -144t119.5 -204t44.5 -260t-44.5 -260t-119.5 -204t-173.5 -144t-206.5 -88.5t-218 -28.5h-481zM324 135h286q129 0 237 32.5t183 89t128 132t77.5 160.5t24.5 176t-24.5 176t-77.5 160.5t-128 132t-183 89t-237 32.5 h-286v-1180z" />
<glyph unicode="E" horiz-adv-x="1214" d="M197 0v1450h899v-135h-752v-494h703v-135h-703v-551h776v-135h-923z" />
<glyph unicode="F" d="M197 0v1450h874v-135h-727v-494h676v-135h-676v-686h-147z" />
<glyph unicode="G" horiz-adv-x="1593" d="M98 725q0 217 98.5 391.5t271.5 272.5t386 98q329 0 524 -195l-110 -108q-158 168 -414 168q-136 0 -250 -51t-188.5 -137.5t-116 -199.5t-41.5 -239t41.5 -239t116 -199.5t188.5 -137.5t250 -51q217 0 401 103v485h-346v135h494v-710q-119 -70 -266.5 -109t-282.5 -39 q-213 0 -386 98t-271.5 272.5t-98.5 391.5z" />
<glyph unicode="H" horiz-adv-x="1478" d="M197 0v1450h147v-629h791v629h147v-1450h-147v686h-791v-686h-147z" />
<glyph unicode="I" horiz-adv-x="540" d="M197 0v1450h147v-1450h-147z" />
<glyph unicode="J" horiz-adv-x="987" d="M29 266l149 31q21 -94 78.5 -146.5t151.5 -52.5q62 0 109 21t74.5 54.5t44 82.5t22.5 97t6 106v991h147v-1053q0 -62 -12 -120.5t-42 -116.5t-75.5 -101t-117 -69.5t-161.5 -26.5q-152 0 -251 78t-123 225z" />
<glyph unicode="K" horiz-adv-x="1290" d="M197 0v1450h147v-629h21l682 629h210l-731 -657l772 -793h-217l-712 748h-25v-748h-147z" />
<glyph unicode="L" horiz-adv-x="1024" d="M197 0v1450h147v-1315h676v-135h-823z" />
<glyph unicode="M" horiz-adv-x="1822" d="M197 0v1450h225l489 -1180l490 1180h225v-1450h-147v1253h-4l-525 -1253h-78l-524 1253h-4v-1253h-147z" />
<glyph unicode="N" horiz-adv-x="1593" d="M197 0v1450h184l864 -1229h4v1229h148v-1450h-185l-864 1241h-4v-1241h-147z" />
<glyph unicode="O" horiz-adv-x="1708" d="M98 725q0 217 98.5 391.5t271.5 272.5t386 98t386 -98t271.5 -272.5t98.5 -391.5t-98.5 -391.5t-271.5 -272.5t-386 -98t-386 98t-271.5 272.5t-98.5 391.5zM258 725q0 -126 41.5 -239t116 -199.5t188.5 -137.5t250 -51t250 51t188.5 137.5t116 199.5t41.5 239t-41.5 239 t-116 199.5t-188.5 137.5t-250 51t-250 -51t-188.5 -137.5t-116 -199.5t-41.5 -239z" />
<glyph unicode="P" horiz-adv-x="1175" d="M197 0v1450h421q226 0 352 -98t126 -289t-126 -290t-352 -99h-274v-674h-147zM344 809h238q186 0 270 70t84 184t-84 183t-270 69h-238v-506z" />
<glyph unicode="Q" horiz-adv-x="1708" d="M98 743q0 159 56 297.5t153 236.5t233 154t291 56t290.5 -56t232.5 -154t153 -236.5t56 -297.5q0 -202 -84 -357.5t-256 -246.5v-4h438v-135h-830q-207 0 -375 95.5t-263 265.5t-95 382zM258 743q0 -121 40 -231t112 -194t181.5 -133.5t239.5 -49.5q172 0 304.5 85.5 t200 222.5t67.5 300q0 121 -40 231t-112 194t-181 134t-239 50t-239.5 -50t-181.5 -134t-112 -194t-40 -231z" />
<glyph unicode="R" horiz-adv-x="1214" d="M197 0v1450h446q226 0 351.5 -98t125.5 -289q0 -154 -97.5 -257t-272.5 -118l417 -688h-180l-397 674h-246v-674h-147zM344 809h262q186 0 270.5 70t84.5 184t-84.5 183t-270.5 69h-262v-506z" />
<glyph unicode="S" d="M102 178l134 96q47 -82 132.5 -129t196.5 -47q75 0 145 29.5t118.5 91.5t48.5 143q0 65 -25.5 114.5t-68.5 80t-99 54.5t-117.5 43t-123 40t-117.5 52t-99 72t-68.5 106.5t-25.5 150.5q0 82 26 150.5t71 116t105 81t127.5 49t139.5 15.5q128 0 227.5 -40.5t182.5 -135.5 l-129 -101q-95 142 -281 142q-80 0 -148 -26.5t-114.5 -87.5t-46.5 -148q0 -62 25.5 -109.5t68.5 -77.5t98.5 -53.5t117.5 -43.5t123.5 -41.5t117 -53t98.5 -73t68.5 -107t25.5 -148.5q0 -95 -42 -176t-110.5 -133.5t-153 -81.5t-171.5 -29q-139 0 -258 53t-199 162z" />
<glyph unicode="T" horiz-adv-x="1175" d="M29 1315v135h1118v-135h-485v-1315h-148v1315h-485z" />
<glyph unicode="U" horiz-adv-x="1404" d="M172 541v909h147v-893q0 -119 30 -207.5t72 -135t99 -74.5t98.5 -35t83.5 -7t83.5 7t98.5 35t99 74.5t72 135t30 207.5v893h148v-909q0 -55 -6.5 -108.5t-23 -112t-42.5 -109t-68 -97t-95.5 -79.5t-129.5 -52.5t-166 -19.5t-165.5 19.5t-129.5 52.5t-95.5 79.5t-67.5 97 t-42.5 109t-23 112t-6.5 108.5z" />
<glyph unicode="V" horiz-adv-x="1251" d="M-6 1450h164l460 -1229h5l475 1229h159l-565 -1450h-147z" />
<glyph unicode="W" horiz-adv-x="1933" d="M0 1450h164l348 -1241h4l365 1241h176l364 -1241h4l344 1241h164l-428 -1450h-172l-364 1241h-4l-365 -1241h-172z" />
<glyph unicode="X" horiz-adv-x="1290" d="M12 0l531 762l-490 688h199l395 -580l406 580h184l-492 -688l533 -762h-195l-442 657l-444 -657h-185z" />
<glyph unicode="Y" horiz-adv-x="1175" d="M-29 1450h185l432 -684l432 684h184l-542 -825v-625h-148v625z" />
<glyph unicode="Z" d="M47 0v123l848 1192h-836v135h1020v-123l-846 -1192h859v-135h-1045z" />
<glyph unicode="[" horiz-adv-x="532" d="M133 -319v1818h332v-110h-197v-1598h197v-110h-332z" />
<glyph unicode="\" horiz-adv-x="757" d="M10 1446l117 41l621 -1485l-119 -39z" />
<glyph unicode="]" horiz-adv-x="532" d="M68 -209h196v1598h-196v110h331v-1818h-331v110z" />
<glyph unicode="^" horiz-adv-x="1363" d="M164 563l469 887h98l469 -887h-127l-391 740l-391 -740h-127z" />
<glyph unicode="_" horiz-adv-x="1024" d="M0 -154h1024v-102h-1024v102z" />
<glyph unicode="`" horiz-adv-x="491" d="M-20 1450h186l205 -295h-121z" />
<glyph unicode="a" horiz-adv-x="1062" d="M98 256q0 64 21.5 116t55.5 86t86 59t101.5 38.5t114 21t111.5 9.5t106 2h68v24q0 248 -246 248q-169 0 -293 -112l-82 96q136 139 406 139q151 0 250.5 -87t99.5 -253v-428q0 -113 16 -215h-131q-12 70 -12 156h-4q-58 -94 -140 -137.5t-198 -43.5q-88 0 -161.5 30.5 t-121 96t-47.5 154.5zM246 274q0 -88 66.5 -132t158.5 -44q141 0 216 87.5t75 222.5v69h-70q-446 0 -446 -203z" />
<glyph unicode="b" horiz-adv-x="1251" d="M147 0v1548h136v-749h4q62 91 165 137.5t207 46.5q223 0 366.5 -143t143.5 -361t-143.5 -361t-366.5 -143q-104 0 -207 47t-165 138h-4v-160h-136zM276 479q0 -162 109 -271.5t274 -109.5q164 0 263.5 108t99.5 273t-99.5 273t-263.5 108q-165 0 -274 -109.5t-109 -271.5 z" />
<glyph unicode="c" horiz-adv-x="987" d="M98 479q0 221 139 364q136 140 360 140h9q100 -2 190.5 -43.5t159.5 -122.5l-110 -84q-36 55 -100 91t-140 36h-9q-158 0 -253 -105q-98 -108 -98 -276t98 -276q95 -105 253 -105h9q76 0 140 36t100 91l110 -84q-69 -81 -159.5 -122.5t-190.5 -43.5h-9q-223 0 -360 140 q-139 143 -139 364z" />
<glyph unicode="d" horiz-adv-x="1251" d="M82 479q0 218 143.5 361t366.5 143q104 0 207.5 -46.5t165.5 -137.5h4v749h135v-1548h-135v160h-4q-62 -91 -165.5 -138t-207.5 -47q-223 0 -366.5 143t-143.5 361zM229 479q0 -165 99.5 -273t263.5 -108q165 0 274 109.5t109 271.5t-109 271.5t-274 109.5 q-164 0 -263.5 -108t-99.5 -273z" />
<glyph unicode="e" d="M98 479q0 216 139.5 360t344.5 144q141 -1 246.5 -66.5t158.5 -173t53 -239.5v-62h-798q12 -146 111.5 -245t240.5 -99q101 0 182.5 48t124.5 118l105 -86q-160 -203 -412 -203q-214 0 -355 143.5t-141 360.5zM246 553h647q0 138 -83.5 222.5t-227.5 84.5 q-131 0 -233.5 -94t-102.5 -213z" />
<glyph unicode="f" horiz-adv-x="606" d="M29 836v122h202v263q0 352 322 352q49 0 117 -14l-25 -123q-58 14 -104 14q-54 0 -90 -18t-53.5 -54t-24 -76t-6.5 -98v-246h227v-122h-227v-836h-136v836h-202z" />
<glyph unicode="g" horiz-adv-x="1251" d="M98 487q0 138 62.5 251.5t174.5 179t251 65.5q234 0 370 -184h5v159h135v-950q0 -48 -5.5 -93.5t-21 -96.5t-40 -94.5t-65 -84t-92.5 -69t-126.5 -45.5t-163.5 -17q-280 0 -461 193l100 106q61 -81 157.5 -128.5t209.5 -47.5q100 0 173.5 29.5t116 82t63 118.5t20.5 147 v172h-5q-120 -180 -358 -180q-137 0 -251.5 62.5t-181.5 174.5t-67 250zM246 492q0 -152 103 -260.5t253 -108.5q99 0 183 45.5t134 131.5q46 79 46 176v16q0 156 -99.5 262t-263.5 106q-150 0 -253 -108t-103 -260z" />
<glyph unicode="h" d="M147 0v1548h136v-743h4q44 78 134.5 128t186.5 50q180 0 270.5 -97t90.5 -278v-608h-135v530q0 168 -58 249t-203 81q-10 0 -25.5 -2t-44.5 -10t-56.5 -22t-58 -42.5t-53 -65.5t-37.5 -95.5t-15 -130.5v-492h-136z" />
<glyph unicode="i" horiz-adv-x="491" d="M147 1327q0 41 30.5 69.5t68.5 28.5t68 -28.5t30 -69.5t-30 -69.5t-68 -28.5t-68.5 28.5t-30.5 69.5zM178 0v958h135v-958h-135z" />
<glyph unicode="j" horiz-adv-x="491" d="M-63 -471l18 117q45 -15 78 -15q47 0 78 17.5t44.5 50.5t18 62.5t4.5 70.5v1126h135v-1148q0 -90 -15 -139q-52 -162 -255 -163q-54 0 -106 21zM147 1327q0 41 30.5 69.5t68.5 28.5t68 -28.5t30 -69.5q0 -28 -14.5 -50.5t-36.5 -35t-47 -12.5q-38 0 -68.5 28.5 t-30.5 69.5z" />
<glyph unicode="k" horiz-adv-x="987" d="M147 0v1548h136v-1022l452 432h203l-477 -438l528 -520h-209l-497 504v-504h-136z" />
<glyph unicode="l" horiz-adv-x="491" d="M178 0v1548h135v-1548h-135z" />
<glyph unicode="m" horiz-adv-x="1744" d="M137 958h146v-145h4q48 80 133.5 125t175.5 45q43 0 83.5 -8.5t83.5 -29t79.5 -61.5t58.5 -100q40 91 128.5 145t187.5 54q180 0 270 -96.5t90 -278.5v-608h-135v559q0 154 -54 227.5t-188 73.5q-58 0 -105 -19.5t-77 -52.5t-50.5 -78.5t-29 -95t-8.5 -104.5v-510h-135 v559q0 154 -54 227.5t-188 73.5q-11 0 -25.5 -2t-42 -10t-53 -22t-53.5 -42.5t-48.5 -65.5t-34 -95.5t-13.5 -130.5v-492h-136v745q0 33 -10 213z" />
<glyph unicode="n" d="M137 958h139q7 -60 7 -153h4q44 78 134.5 128t186.5 50q180 0 270.5 -97t90.5 -278v-608h-135v530q0 168 -58 249t-203 81q-10 0 -25.5 -2t-44.5 -10t-56.5 -22t-58 -42.5t-53 -65.5t-37.5 -95.5t-15 -130.5v-492h-136v748q0 35 -10 210z" />
<glyph unicode="o" horiz-adv-x="1214" d="M98 479q0 218 143 361t365 143q223 0 366.5 -143t143.5 -361t-143.5 -361t-366.5 -143q-222 0 -365 143t-143 361zM246 479q0 -165 98.5 -273t261.5 -108q164 0 263.5 108t99.5 273t-99.5 273t-263.5 108q-163 0 -261.5 -108t-98.5 -273z" />
<glyph unicode="p" horiz-adv-x="1251" d="M147 -590v1548h136v-159h4q62 91 165 137.5t207 46.5q223 0 366.5 -143t143.5 -361t-143.5 -361t-366.5 -143q-104 0 -207 47t-165 138h-4v-750h-136zM276 479q0 -162 109 -271.5t274 -109.5q164 0 263.5 108t99.5 273t-99.5 273t-263.5 108q-165 0 -274 -109.5 t-109 -271.5z" />
<glyph unicode="q" horiz-adv-x="1251" d="M82 479q0 218 143.5 361t366.5 143q104 0 207.5 -46.5t165.5 -137.5h4v159h135v-1548h-135v750h-4q-62 -91 -165.5 -138t-207.5 -47q-223 0 -366.5 143t-143.5 361zM229 479q0 -165 99.5 -273t263.5 -108q165 0 274 109.5t109 271.5t-109 271.5t-274 109.5 q-164 0 -263.5 -108t-99.5 -273z" />
<glyph unicode="r" horiz-adv-x="679" d="M154 958h133v-178h4q33 86 111.5 144.5t195.5 58.5q56 0 100 -12l-26 -133q-27 10 -78 10q-73 0 -132 -29.5t-94 -76t-53 -98.5t-18 -103v-541h-135v659q0 21 -8 299z" />
<glyph unicode="s" horiz-adv-x="872" d="M68 162l116 80q92 -144 252 -144q92 0 159 41t67 119q0 28 -10 50.5t-25.5 38t-40.5 28.5t-49 21t-58 16l-131 30q-27 7 -51.5 15t-62.5 28.5t-65 46t-47 68t-20 94.5q0 72 30 128.5t80.5 91t113 52t131.5 17.5q107 0 191.5 -41.5t127.5 -130.5l-121 -80 q-68 129 -206 129q-80 0 -139.5 -36t-59.5 -107q0 -64 44 -96.5t144 -55.5l137 -33q103 -24 168.5 -94t65.5 -168q0 -75 -31.5 -133.5t-85.5 -93t-119 -51.5t-137 -17q-243 0 -368 187z" />
<glyph unicode="t" horiz-adv-x="679" d="M29 836v122h202v271h136v-271h276v-122h-276v-566q0 -100 34.5 -136t104.5 -36q73 0 139 37l6 -125q-75 -35 -182 -35q-34 0 -64.5 6t-63 23.5t-56.5 45t-39 74t-15 107.5v605h-202z" />
<glyph unicode="u" d="M147 350v608h136v-530q0 -168 57.5 -249t202.5 -81q10 0 25.5 2t44.5 10.5t57 22.5t58.5 42t53 65.5t37.5 96t15 130.5v491h135v-747q0 -36 10 -211h-139q-6 51 -6 154h-5q-44 -78 -135 -128.5t-186 -50.5q-180 0 -270.5 97t-90.5 278z" />
<glyph unicode="v" horiz-adv-x="987" d="M29 958h161l306 -806h4l305 806h153l-389 -958h-151z" />
<glyph unicode="w" horiz-adv-x="1478" d="M29 958h159l222 -778h4l256 778h139l256 -778h4l221 778h160l-303 -958h-152l-254 786h-4l-254 -786h-151z" />
<glyph unicode="x" horiz-adv-x="987" d="M0 0l395 512l-348 446h184l267 -358l254 358h168l-334 -446l401 -512h-184l-322 420l-309 -420h-172z" />
<glyph unicode="y" horiz-adv-x="987" d="M33 958h170l301 -792l293 792h164l-480 -1208q-47 -120 -115.5 -181t-185.5 -61q-74 0 -125 15l15 131q45 -23 102 -23q67 0 109 42.5t75 129.5l70 185z" />
<glyph unicode="z" horiz-adv-x="872" d="M47 0v98l561 738h-532v122h729v-98l-561 -737h581v-123h-778z" />
<glyph unicode="{" horiz-adv-x="532" d="M25 528v123q73 0 127.5 62.5t54.5 165.5v364q0 135 61.5 195.5t159.5 60.5h131v-123h-115q-29 0 -49 -11t-30 -25.5t-15.5 -40.5t-6.5 -44.5t-1 -48.5v-352q0 -56 -14.5 -102.5t-35.5 -74t-47.5 -47.5t-47 -28t-37.5 -10v-4q17 -2 37.5 -10t47 -28t47.5 -47.5t35.5 -74 t14.5 -102.5v-353q0 -30 1 -48.5t6.5 -44.5t15.5 -40.5t30 -25.5t49 -11h115v-122h-131q-98 0 -159.5 60.5t-61.5 195.5v364q0 103 -54.5 165t-127.5 62z" />
<glyph unicode="|" horiz-adv-x="454" d="M166 -512v2048h123v-2048h-123z" />
<glyph unicode="}" horiz-adv-x="532" d="M-27 -197h115q29 0 49 11t30 25.5t15.5 40.5t6.5 44.5t1 48.5v353q0 56 14.5 102.5t36 74t48 47.5t47 28t37.5 10v4q-17 2 -37.5 10t-47 28t-48 47.5t-36 74t-14.5 102.5v352q0 30 -1 48.5t-6.5 44.5t-15.5 40.5t-30 25.5t-49 11h-115v123h131q98 0 160 -60.5t62 -195.5 v-364q0 -103 54.5 -165.5t127.5 -62.5v-123q-73 0 -127.5 -62t-54.5 -165v-364q0 -135 -62 -195.5t-160 -60.5h-131v122z" />
<glyph unicode="~" horiz-adv-x="1363" d="M182 569q28 39 52 67t59.5 59.5t78 48t89.5 16.5q67 0 103.5 -10t109.5 -50q15 -8 50.5 -29.5t57 -33.5t53 -22.5t58.5 -10.5q102 0 203 150l86 -82q-28 -39 -52 -67t-59.5 -59.5t-78 -48t-89.5 -16.5q-67 0 -103.5 10t-109.5 50q-15 8 -50.5 29.5t-57 33.5t-53 22.5 t-58.5 10.5q-102 0 -203 -150z" />
<glyph unicode="&#xa1;" horiz-adv-x="569" d="M174 885q0 44 31.5 77t79.5 33t79 -33t31 -77t-31 -77.5t-79 -33.5t-79.5 33.5t-31.5 77.5zM211 -467v1057h147v-1057h-147z" />
<glyph unicode="&#xa2;" d="M160 479q0 201 116 339t314 159v129h98v-125q199 -10 330 -164l-111 -84q-32 52 -90 86.5t-129 38.5v-758q71 4 129 38.5t90 86.5l111 -84q-131 -154 -330 -164v-124h-98v129q-198 21 -314 158.5t-116 338.5zM307 479q0 -146 76 -249t207 -126v750q-131 -23 -207 -126 t-76 -249z" />
<glyph unicode="&#xa3;" d="M172 0v123h209v563h-197v123h197v178q0 82 12.5 151t43.5 132.5t79 108t124.5 70.5t174.5 26q201 0 318 -123l-97 -105q-95 105 -227 105q-72 0 -125.5 -26.5t-82.5 -65t-46.5 -93.5t-22 -98.5t-4.5 -93.5v-166h344v-123h-344v-563h519v-123h-875z" />
<glyph unicode="&#xa4;" d="M63 305l109 109q-112 140 -109 311q-3 171 109 311l-109 109l91 90l108 -109q140 109 307 109q168 0 308 -109l108 109l90 -90l-108 -109q111 -139 108 -311q3 -172 -108 -311l108 -109l-90 -90l-108 109q-140 -109 -308 -109q-167 0 -307 109l-108 -109zM199 725 q0 -160 108.5 -273.5t263.5 -113.5q153 0 261 113.5t108 273.5t-108 273.5t-261 113.5q-155 0 -263.5 -113.5t-108.5 -273.5z" />
<glyph unicode="&#xa5;" d="M-4 1450h174l399 -696l400 696h174l-418 -700h252v-111h-320l-14 -25v-157h334v-111h-334v-346h-147v346h-334v111h334v157l-15 25h-319v111h254z" />
<glyph unicode="&#xa6;" horiz-adv-x="454" d="M166 358h123v-716h-123v716zM166 666v716h123v-716h-123z" />
<glyph unicode="&#xa7;" d="M127 -49l135 65q32 -90 105.5 -134t164.5 -44q44 0 83.5 10.5t75.5 33.5t57.5 65.5t21.5 99.5q0 109 -143 180l-281 138q-184 89 -184 266q0 181 213 274q-69 47 -98 80q-60 69 -60 166q0 152 104 238t254 86q131 0 226 -55t127 -138l-121 -61q-26 51 -81 91t-140 40 q-66 0 -113 -22t-68.5 -54.5t-30.5 -59.5t-9 -49q0 -68 41.5 -110t123.5 -84l226 -115q198 -102 198 -285q0 -172 -178 -268q77 -55 109.5 -112t32.5 -144q0 -83 -32 -148.5t-86.5 -105t-123 -60t-144.5 -20.5q-142 0 -249.5 60t-155.5 176zM309 641q0 -21 6.5 -41t14 -34.5 t25 -30.5t28 -24.5t35.5 -22.5t34 -18.5t37 -18t33 -15.5l135 -65q60 24 105 74t45 108q0 43 -16 78t-47 61.5t-60.5 44.5t-71.5 37l-116 53l-35 -14q-152 -64 -152 -172z" />
<glyph unicode="&#xa8;" horiz-adv-x="491" d="M-55 1325q0 41 30 73t74 32t74.5 -32t30.5 -73t-30.5 -72.5t-74.5 -31.5t-74 31.5t-30 72.5zM338 1325q0 41 30 73t74 32t74.5 -32t30.5 -73t-30.5 -72.5t-74.5 -31.5t-74 31.5t-30 72.5z" />
<glyph unicode="&#xa9;" horiz-adv-x="1638" d="M51 721q0 161 61.5 304t165.5 244t245 159.5t296 58.5q207 0 383 -99t280.5 -274t104.5 -385q0 -161 -61.5 -304t-165.5 -244t-245 -159.5t-296 -58.5q-207 0 -383 99t-280.5 274t-104.5 385zM174 721q0 -179 86 -328t234 -234t325 -85q132 0 251.5 50.5t205.5 137 t137 208.5t51 259q0 180 -86 329t-234 233.5t-325 84.5q-132 0 -251.5 -50t-206 -136.5t-137 -208.5t-50.5 -260zM393 725q0 206 122 335.5t329 129.5q153 0 259.5 -80.5t127.5 -230.5h-115q-18 88 -92 144t-178 56q-152 0 -241 -99.5t-89 -250.5q0 -146 94 -253t240 -107 q103 0 175.5 59.5t90.5 149.5h117q-34 -147 -137.5 -233.5t-245.5 -86.5q-204 0 -330.5 132.5t-126.5 334.5z" />
<glyph unicode="&#xaa;" horiz-adv-x="690" d="M63 1038q0 101 82.5 153t276.5 52h45v17q0 57 -34 86.5t-97 29.5q-105 0 -182 -61l-66 76q89 84 244 84q72 0 126 -19t81 -48.5t39 -59t12 -58.5v-280q0 -42 10 -129h-111l-6 73h-2q-60 -86 -202 -86q-90 0 -153 44t-63 126zM186 1044q0 -37 36 -57t85 -20q160 0 160 178 h-27q-254 0 -254 -101z" />
<glyph unicode="&#xab;" horiz-adv-x="987" d="M106 492l287 428l96 -68l-235 -360l235 -361l-96 -68zM479 492l287 428l96 -68l-235 -360l235 -361l-96 -68z" />
<glyph unicode="&#xac;" horiz-adv-x="1363" d="M160 713v123h1044v-570h-123v447h-921z" />
<glyph unicode="&#xad;" horiz-adv-x="681" d="M78 424v135h526v-135h-526z" />
<glyph unicode="&#xae;" horiz-adv-x="1638" d="M51 721q0 161 61.5 304t165.5 244t245 159.5t296 58.5q207 0 383 -99t280.5 -274t104.5 -385q0 -161 -61.5 -304t-165.5 -244t-245 -159.5t-296 -58.5q-207 0 -383 99t-280.5 274t-104.5 385zM174 721q0 -179 86 -328t234 -234t325 -85q132 0 251.5 50.5t205.5 137 t137 208.5t51 259q0 180 -86 329t-234 233.5t-325 84.5q-132 0 -251.5 -50t-206 -136.5t-137 -208.5t-50.5 -260zM535 279v882h323q159 0 235 -61.5t76 -192.5q0 -112 -63.5 -170t-169.5 -69l254 -389h-133l-242 378h-158v-378h-122zM657 768h152q37 0 61 1t55 5.5t50 14 t37 25t26.5 40.5t8.5 59q0 44 -17 73t-48.5 42.5t-62 18t-71.5 4.5h-191v-283z" />
<glyph unicode="&#xaf;" horiz-adv-x="491" d="M-31 1229v110h553v-110h-553z" />
<glyph unicode="&#xb0;" horiz-adv-x="819" d="M104 1169q0 132 87 219t219 87t218.5 -87t86.5 -219t-86.5 -218.5t-218.5 -86.5t-219 86.5t-87 218.5zM203 1169q0 -86 60.5 -146t146.5 -60t146 60t60 146t-60 146.5t-146 60.5t-146.5 -60.5t-60.5 -146.5z" />
<glyph unicode="&#xb1;" horiz-adv-x="1363" d="M160 98v123h1044v-123h-1044zM160 711v123h461v319h122v-319h461v-123h-461v-310h-122v310h-461z" />
<glyph unicode="&#xb2;" horiz-adv-x="739" d="M70 592v117l350 335q36 35 57 58.5t41.5 62.5t20.5 76q0 49 -49 86t-107 37q-66 0 -115 -33t-65 -82l-115 19q20 98 99 152.5t190 54.5q121 0 203 -59.5t82 -166.5q0 -47 -14.5 -89.5t-48 -84t-57 -65.5t-71.5 -68l-266 -240h465v-110h-600z" />
<glyph unicode="&#xb3;" horiz-adv-x="739" d="M70 756l106 61q26 -65 72 -96t129 -31q61 0 115.5 44.5t54.5 96.5q0 27 -9.5 52t-32 50t-68.5 40.5t-111 15.5h-60v111h49q88 0 146.5 35.5t58.5 101.5q0 55 -42 91t-105 36q-60 0 -98.5 -20t-77.5 -74l-97 67q51 74 116.5 106t154.5 32q115 0 193.5 -61t78.5 -165 q0 -70 -47.5 -124.5t-120.5 -77.5v-5q92 -15 143.5 -73.5t51.5 -139.5q0 -116 -86.5 -182.5t-214.5 -66.5q-223 0 -299 176z" />
<glyph unicode="&#xb4;" horiz-adv-x="491" d="M121 1155l205 295h186l-270 -295h-121z" />
<glyph unicode="&#xb5;" d="M147 -467v1425h136v-530q0 -180 57 -255t203 -75q127 0 209 98.5t82 270.5v491h135v-747q0 -36 10 -211h-145v156h-5q-46 -74 -137 -127.5t-184 -53.5q-140 0 -225 60v-502h-136z" />
<glyph unicode="&#xb6;" horiz-adv-x="1228" d="M98 1028q0 198 125 310t342 112h486v-1708h-136v1597h-253v-1597h-136v905q-186 0 -307 110t-121 271z" />
<glyph unicode="&#xb7;" horiz-adv-x="569" d="M174 643q0 44 31.5 77.5t79.5 33.5t79 -33.5t31 -77.5t-31 -77.5t-79 -33.5t-79.5 33.5t-31.5 77.5z" />
<glyph unicode="&#xb8;" horiz-adv-x="491" d="M29 -395l32 73q68 -36 152 -36q51 0 89 22.5t38 69.5q0 28 -22.5 55t-77.5 27q-43 0 -95 -23l-36 35l127 172h83l-92 -123l4 -2q40 14 74 14q65 0 111.5 -41.5t46.5 -111.5q0 -88 -71 -134t-165 -46q-107 0 -198 49z" />
<glyph unicode="&#xb9;" horiz-adv-x="739" d="M111 1280l239 182h111v-870h-123v747l-168 -137z" />
<glyph unicode="&#xba;" horiz-adv-x="788" d="M63 1169q0 133 93 219.5t237 86.5q146 0 239 -86.5t93 -219.5q0 -130 -93.5 -215.5t-238.5 -85.5q-144 0 -237 85.5t-93 215.5zM186 1169q0 -85 59 -143.5t148 -58.5q91 0 150 58.5t59 143.5q0 86 -59 146.5t-150 60.5q-89 0 -148 -60.5t-59 -146.5z" />
<glyph unicode="&#xbb;" horiz-adv-x="987" d="M125 131l235 361l-235 360l96 68l287 -428l-287 -429zM498 131l235 361l-235 360l96 68l287 -428l-287 -429z" />
<glyph unicode="&#xbc;" horiz-adv-x="1708" d="M131 1280l240 182h110v-870h-123v747l-168 -137zM313 0l924 1516l104 -64l-921 -1518zM938 193v126l367 551h149v-567h123v-110h-123v-193h-123v193h-393zM1049 303h282v445h-4z" />
<glyph unicode="&#xbd;" horiz-adv-x="1708" d="M80 1280l239 182h111v-870h-123v747l-168 -137zM262 0l924 1516l104 -64l-921 -1518zM1028 0v117l350 336q37 36 57.5 58.5t41 61.5t20.5 76q0 49 -49 86t-107 37q-66 0 -115 -33t-65 -82l-114 19q20 98 98.5 152.5t189.5 54.5q121 0 203 -59.5t82 -166.5 q0 -47 -14.5 -89.5t-47 -84t-57 -66t-71.5 -67.5l-267 -239h465v-111h-600z" />
<glyph unicode="&#xbe;" horiz-adv-x="1708" d="M90 756l105 61q26 -65 71.5 -96t128.5 -31q61 0 115.5 44.5t54.5 96.5q0 27 -9.5 52t-32 50t-68.5 40.5t-111 15.5h-59v111h49q89 0 147 37t58 108q0 50 -42.5 84.5t-105.5 34.5q-60 0 -98.5 -20t-77.5 -74l-96 67q51 74 116 106t154 32q115 0 194 -61t79 -165 q0 -70 -47.5 -124.5t-120.5 -77.5v-5q92 -15 143 -73t51 -140q0 -116 -86.5 -182.5t-214.5 -66.5q-224 0 -297 176zM395 0l924 1516l104 -64l-921 -1518zM979 193v126l367 551h149v-567h123v-110h-123v-193h-123v193h-393zM1090 303h282v445h-4z" />
<glyph unicode="&#xbf;" horiz-adv-x="987" d="M90 -133q0 71 18.5 128t47.5 95t64.5 71.5t71 65t64.5 65.5t47.5 83.5t18.5 109.5v105h147v-170q-1 -52 -26 -101t-61.5 -85.5t-79.5 -78t-79.5 -79t-60.5 -89t-24 -108.5q0 -104 66.5 -169.5t172.5 -65.5q102 0 171.5 61t88.5 162l154 -19q-23 -158 -136.5 -249 t-275.5 -91q-170 0 -279.5 95.5t-109.5 263.5zM373 885q0 44 31 77t79 33t79.5 -33t31.5 -77t-31.5 -77.5t-79.5 -33.5t-79 33.5t-31 77.5z" />
<glyph unicode="&#xc0;" horiz-adv-x="1404" d="M0 0l631 1450h143l631 -1450h-172l-160 381h-741l-160 -381h-172zM387 516h629l-314 762zM436 1808h187l204 -295h-120z" />
<glyph unicode="&#xc1;" horiz-adv-x="1404" d="M0 0l631 1450h143l631 -1450h-172l-160 381h-741l-160 -381h-172zM387 516h629l-314 762zM578 1513l204 295h187l-271 -295h-120z" />
<glyph unicode="&#xc2;" horiz-adv-x="1404" d="M0 0l631 1450h143l631 -1450h-172l-160 381h-741l-160 -381h-172zM387 516h629l-314 762zM397 1513l224 295h163l224 -295h-136l-170 222l-170 -222h-135z" />
<glyph unicode="&#xc3;" horiz-adv-x="1404" d="M0 0l631 1450h143l631 -1450h-172l-160 381h-741l-160 -381h-172zM371 1538q36 213 188 213q58 0 150 -47q3 -1 16 -7.5t16.5 -8t15 -6.5t16.5 -7l15 -6t15.5 -5.5t14 -3.5t15 -2.5t13.5 -0.5q76 0 100 102h88q-36 -213 -188 -213q-50 0 -150 47q-88 47 -137 47 q-76 0 -100 -102h-88zM387 516h629l-314 762z" />
<glyph unicode="&#xc4;" horiz-adv-x="1404" d="M0 0l631 1450h143l631 -1450h-172l-160 381h-741l-160 -381h-172zM387 516h629l-314 762zM401 1683q0 41 30.5 73t74.5 32t74 -32t30 -73t-30 -72.5t-74 -31.5t-74.5 31.5t-30.5 72.5zM795 1683q0 41 30 73t74 32t74.5 -32t30.5 -73t-30.5 -72.5t-74.5 -31.5t-74 31.5 t-30 72.5z" />
<glyph unicode="&#xc5;" horiz-adv-x="1404" d="M0 0l631 1450h143l631 -1450h-172l-160 381h-741l-160 -381h-172zM387 516h629l-314 762zM506 1690q0 82 57.5 138t138.5 56t139 -56t58 -138t-58 -138.5t-139 -56.5q-80 0 -138 56.5t-58 138.5zM580 1690q0 -51 35.5 -86t86.5 -35t87 35t36 86t-36 85.5t-87 34.5 t-86.5 -34.5t-35.5 -85.5z" />
<glyph unicode="&#xc6;" horiz-adv-x="1933" d="M0 0l944 1450h852v-135h-602v-494h565v-135h-565v-551h627v-135h-774v406h-611l-262 -406h-174zM522 541h525v774h-23z" />
<glyph unicode="&#xc7;" horiz-adv-x="1441" d="M98 725q0 217 98.5 391.5t271.5 272.5t386 98q144 0 277.5 -57t224.5 -173l-129 -96q-45 74 -153.5 132.5t-219.5 58.5q-136 0 -250 -51t-188.5 -137.5t-116 -199.5t-41.5 -239t41.5 -239t116 -199.5t188.5 -137.5t250 -51q275 0 416 217l121 -86q-75 -117 -219 -191.5 t-318 -74.5q-29 0 -43 4l-68 -90l5 -2q40 14 73 14q65 0 111.5 -41.5t46.5 -111.5q0 -88 -71 -134t-165 -46q-107 0 -198 49l33 73q68 -36 151 -36q51 0 89 22.5t38 69.5q0 28 -22.5 55t-77.5 27q-42 0 -94 -23l-37 35l106 145q-280 42 -456.5 249t-176.5 503z" />
<glyph unicode="&#xc8;" horiz-adv-x="1214" d="M197 0v1450h899v-135h-752v-494h703v-135h-703v-551h776v-135h-923zM342 1808h186l205 -295h-121z" />
<glyph unicode="&#xc9;" horiz-adv-x="1214" d="M197 0v1450h899v-135h-752v-494h703v-135h-703v-551h776v-135h-923zM483 1513l205 295h186l-270 -295h-121z" />
<glyph unicode="&#xca;" horiz-adv-x="1214" d="M197 0v1450h899v-135h-752v-494h703v-135h-703v-551h776v-135h-923zM303 1513l223 295h164l223 -295h-135l-170 222l-170 -222h-135z" />
<glyph unicode="&#xcb;" horiz-adv-x="1214" d="M197 0v1450h899v-135h-752v-494h703v-135h-703v-551h776v-135h-923zM307 1683q0 41 30.5 73t74.5 32t74 -32t30 -73t-30 -72.5t-74 -31.5t-74.5 31.5t-30.5 72.5zM700 1683q0 41 30.5 73t74.5 32t74 -32t30 -73t-30 -72.5t-74 -31.5t-74.5 31.5t-30.5 72.5z" />
<glyph unicode="&#xcc;" horiz-adv-x="540" d="M4 1808h186l205 -295h-121zM197 0v1450h147v-1450h-147z" />
<glyph unicode="&#xcd;" horiz-adv-x="540" d="M145 1513l205 295h187l-271 -295h-121zM197 0v1450h147v-1450h-147z" />
<glyph unicode="&#xce;" horiz-adv-x="540" d="M-35 1513l223 295h164l223 -295h-135l-170 222l-170 -222h-135zM197 0v1450h147v-1450h-147z" />
<glyph unicode="&#xcf;" horiz-adv-x="540" d="M-31 1683q0 41 30.5 73t74.5 32t74 -32t30 -73t-30 -72.5t-74 -31.5t-74.5 31.5t-30.5 72.5zM197 0v1450h147v-1450h-147zM362 1683q0 41 30.5 73t74.5 32t74 -32t30 -73t-30 -72.5t-74 -31.5t-74.5 31.5t-30.5 72.5z" />
<glyph unicode="&#xd0;" horiz-adv-x="1517" d="M27 711v110h149v629h481q110 0 218 -28.5t206.5 -88.5t173.5 -144t119.5 -204t44.5 -260t-44.5 -260t-119.5 -204t-173.5 -144t-206.5 -88.5t-218 -28.5h-481v711h-149zM324 135h286q129 0 237 32.5t183 89t128 132t77.5 160.5t24.5 176t-24.5 176t-77.5 160.5t-128 132 t-183 89t-237 32.5h-286v-494h528v-110h-528v-576z" />
<glyph unicode="&#xd1;" horiz-adv-x="1593" d="M197 0v1450h184l864 -1229h4v1229h148v-1450h-185l-864 1241h-4v-1241h-147zM465 1538q36 213 188 213q58 0 150 -47q3 -1 16 -7.5t16.5 -8t15 -6.5t16.5 -7l15 -6t15.5 -5.5t14 -3.5t15 -2.5t13.5 -0.5q76 0 100 102h88q-36 -213 -188 -213q-48 0 -145 47t-142 47 q-76 0 -100 -102h-88z" />
<glyph unicode="&#xd2;" horiz-adv-x="1708" d="M98 725q0 217 98.5 391.5t271.5 272.5t386 98t386 -98t271.5 -272.5t98.5 -391.5t-98.5 -391.5t-271.5 -272.5t-386 -98t-386 98t-271.5 272.5t-98.5 391.5zM258 725q0 -126 41.5 -239t116 -199.5t188.5 -137.5t250 -51t250 51t188.5 137.5t116 199.5t41.5 239t-41.5 239 t-116 199.5t-188.5 137.5t-250 51t-250 -51t-188.5 -137.5t-116 -199.5t-41.5 -239zM588 1808h186l205 -295h-121z" />
<glyph unicode="&#xd3;" horiz-adv-x="1708" d="M98 725q0 217 98.5 391.5t271.5 272.5t386 98t386 -98t271.5 -272.5t98.5 -391.5t-98.5 -391.5t-271.5 -272.5t-386 -98t-386 98t-271.5 272.5t-98.5 391.5zM258 725q0 -126 41.5 -239t116 -199.5t188.5 -137.5t250 -51t250 51t188.5 137.5t116 199.5t41.5 239t-41.5 239 t-116 199.5t-188.5 137.5t-250 51t-250 -51t-188.5 -137.5t-116 -199.5t-41.5 -239zM729 1513l205 295h186l-270 -295h-121z" />
<glyph unicode="&#xd4;" horiz-adv-x="1708" d="M98 725q0 217 98.5 391.5t271.5 272.5t386 98t386 -98t271.5 -272.5t98.5 -391.5t-98.5 -391.5t-271.5 -272.5t-386 -98t-386 98t-271.5 272.5t-98.5 391.5zM258 725q0 -126 41.5 -239t116 -199.5t188.5 -137.5t250 -51t250 51t188.5 137.5t116 199.5t41.5 239t-41.5 239 t-116 199.5t-188.5 137.5t-250 51t-250 -51t-188.5 -137.5t-116 -199.5t-41.5 -239zM549 1513l223 295h164l223 -295h-135l-170 222l-170 -222h-135z" />
<glyph unicode="&#xd5;" horiz-adv-x="1708" d="M98 725q0 217 98.5 391.5t271.5 272.5t386 98t386 -98t271.5 -272.5t98.5 -391.5t-98.5 -391.5t-271.5 -272.5t-386 -98t-386 98t-271.5 272.5t-98.5 391.5zM258 725q0 -126 41.5 -239t116 -199.5t188.5 -137.5t250 -51t250 51t188.5 137.5t116 199.5t41.5 239t-41.5 239 t-116 199.5t-188.5 137.5t-250 51t-250 -51t-188.5 -137.5t-116 -199.5t-41.5 -239zM522 1538q36 213 189 213q57 0 149 -47q3 -1 16 -7.5t16.5 -8t15 -6.5t16.5 -7l15 -6t15.5 -5.5t14 -3.5t15 -2.5t13.5 -0.5q77 0 101 102h88q-36 -213 -189 -213q-49 0 -149 47 q-88 47 -137 47q-77 0 -101 -102h-88z" />
<glyph unicode="&#xd6;" horiz-adv-x="1708" d="M98 725q0 217 98.5 391.5t271.5 272.5t386 98t386 -98t271.5 -272.5t98.5 -391.5t-98.5 -391.5t-271.5 -272.5t-386 -98t-386 98t-271.5 272.5t-98.5 391.5zM258 725q0 -126 41.5 -239t116 -199.5t188.5 -137.5t250 -51t250 51t188.5 137.5t116 199.5t41.5 239t-41.5 239 t-116 199.5t-188.5 137.5t-250 51t-250 -51t-188.5 -137.5t-116 -199.5t-41.5 -239zM553 1683q0 41 30 73t74 32t74.5 -32t30.5 -73t-30.5 -72.5t-74.5 -31.5t-74 31.5t-30 72.5zM946 1683q0 41 30.5 73t74.5 32t74 -32t30 -73t-30 -72.5t-74 -31.5t-74.5 31.5t-30.5 72.5z " />
<glyph unicode="&#xd7;" horiz-adv-x="1363" d="M270 295l326 326l-326 327l86 86l326 -325l324 325l88 -86l-326 -327l326 -326l-88 -88l-324 325l-326 -325z" />
<glyph unicode="&#xd8;" horiz-adv-x="1708" d="M98 725q0 217 98.5 391.5t271.5 272.5t386 98q278 0 483 -166l156 166l76 -70l-156 -168q197 -210 197 -524q0 -217 -98.5 -391.5t-271.5 -272.5t-386 -98q-280 0 -483 166l-156 -166l-76 70l156 168q-197 210 -197 524zM258 725q0 -243 139 -414l842 903 q-157 138 -385 138q-136 0 -250 -51t-188.5 -137.5t-116 -199.5t-41.5 -239zM469 236q157 -138 385 -138q136 0 250 51t188.5 137.5t116 199.5t41.5 239q0 239 -139 414z" />
<glyph unicode="&#xd9;" horiz-adv-x="1404" d="M172 541v909h147v-893q0 -119 30 -207.5t72 -135t99 -74.5t98.5 -35t83.5 -7t83.5 7t98.5 35t99 74.5t72 135t30 207.5v893h148v-909q0 -55 -6.5 -108.5t-23 -112t-42.5 -109t-68 -97t-95.5 -79.5t-129.5 -52.5t-166 -19.5t-165.5 19.5t-129.5 52.5t-95.5 79.5t-67.5 97 t-42.5 109t-23 112t-6.5 108.5zM436 1808h187l204 -295h-120z" />
<glyph unicode="&#xda;" horiz-adv-x="1404" d="M172 541v909h147v-893q0 -119 30 -207.5t72 -135t99 -74.5t98.5 -35t83.5 -7t83.5 7t98.5 35t99 74.5t72 135t30 207.5v893h148v-909q0 -55 -6.5 -108.5t-23 -112t-42.5 -109t-68 -97t-95.5 -79.5t-129.5 -52.5t-166 -19.5t-165.5 19.5t-129.5 52.5t-95.5 79.5t-67.5 97 t-42.5 109t-23 112t-6.5 108.5zM578 1513l204 295h187l-271 -295h-120z" />
<glyph unicode="&#xdb;" horiz-adv-x="1404" d="M172 541v909h147v-893q0 -119 30 -207.5t72 -135t99 -74.5t98.5 -35t83.5 -7t83.5 7t98.5 35t99 74.5t72 135t30 207.5v893h148v-909q0 -55 -6.5 -108.5t-23 -112t-42.5 -109t-68 -97t-95.5 -79.5t-129.5 -52.5t-166 -19.5t-165.5 19.5t-129.5 52.5t-95.5 79.5t-67.5 97 t-42.5 109t-23 112t-6.5 108.5zM397 1513l224 295h163l224 -295h-136l-170 222l-170 -222h-135z" />
<glyph unicode="&#xdc;" horiz-adv-x="1404" d="M172 541v909h147v-893q0 -119 30 -207.5t72 -135t99 -74.5t98.5 -35t83.5 -7t83.5 7t98.5 35t99 74.5t72 135t30 207.5v893h148v-909q0 -55 -6.5 -108.5t-23 -112t-42.5 -109t-68 -97t-95.5 -79.5t-129.5 -52.5t-166 -19.5t-165.5 19.5t-129.5 52.5t-95.5 79.5t-67.5 97 t-42.5 109t-23 112t-6.5 108.5zM401 1683q0 41 30.5 73t74.5 32t74 -32t30 -73t-30 -72.5t-74 -31.5t-74.5 31.5t-30.5 72.5zM795 1683q0 41 30 73t74 32t74.5 -32t30.5 -73t-30.5 -72.5t-74.5 -31.5t-74 31.5t-30 72.5z" />
<glyph unicode="&#xdd;" horiz-adv-x="1175" d="M-29 1450h185l432 -684l432 684h184l-542 -825v-625h-148v625zM463 1513l205 295h186l-270 -295h-121z" />
<glyph unicode="&#xde;" horiz-adv-x="1175" d="M197 0v1450h147v-320h328q190 0 307 -99.5t117 -287.5q0 -96 -32 -171t-89.5 -122t-134 -71.5t-168.5 -24.5h-328v-354h-147zM344 489h238q46 0 81 2.5t79.5 10.5t76 25.5t60 44.5t43 70.5t14.5 100.5q0 67 -23 115.5t-56 74t-84.5 40.5t-93 18.5t-97.5 3.5h-238v-506z " />
<glyph unicode="&#xdf;" horiz-adv-x="1214" d="M172 0v1114q0 76 13 141t44.5 124.5t79.5 101.5t123.5 67t171.5 25q169 0 280 -98t111 -265q0 -241 -237 -325v-4q88 -7 156.5 -44.5t110 -96t62.5 -130.5t21 -153q0 -218 -134 -350t-351 -132q-64 0 -119 17v117q45 -11 98 -11q164 0 261.5 96t97.5 265 q0 182 -107.5 270t-304.5 88v123q135 0 217 61t82 191q0 119 -72 188.5t-180 69.5q-63 0 -114 -20t-83 -52.5t-53 -76t-30 -87t-9 -88.5v-1126h-135z" />
<glyph unicode="&#xe0;" horiz-adv-x="1062" d="M98 256q0 64 21.5 116t55.5 86t86 59t101.5 38.5t114 21t111.5 9.5t106 2h68v24q0 248 -246 248q-169 0 -293 -112l-82 96q136 139 406 139q151 0 250.5 -87t99.5 -253v-428q0 -113 16 -215h-131q-12 70 -12 156h-4q-58 -94 -140 -137.5t-198 -43.5q-88 0 -161.5 30.5 t-121 96t-47.5 154.5zM246 274q0 -88 66.5 -132t158.5 -44q141 0 216 87.5t75 222.5v69h-70q-446 0 -446 -203zM266 1450h187l204 -295h-120z" />
<glyph unicode="&#xe1;" horiz-adv-x="1062" d="M98 256q0 64 21.5 116t55.5 86t86 59t101.5 38.5t114 21t111.5 9.5t106 2h68v24q0 248 -246 248q-169 0 -293 -112l-82 96q136 139 406 139q151 0 250.5 -87t99.5 -253v-428q0 -113 16 -215h-131q-12 70 -12 156h-4q-58 -94 -140 -137.5t-198 -43.5q-88 0 -161.5 30.5 t-121 96t-47.5 154.5zM246 274q0 -88 66.5 -132t158.5 -44q141 0 216 87.5t75 222.5v69h-70q-446 0 -446 -203zM408 1155l204 295h187l-271 -295h-120z" />
<glyph unicode="&#xe2;" horiz-adv-x="1062" d="M98 256q0 64 21.5 116t55.5 86t86 59t101.5 38.5t114 21t111.5 9.5t106 2h68v24q0 248 -246 248q-169 0 -293 -112l-82 96q136 139 406 139q151 0 250.5 -87t99.5 -253v-428q0 -113 16 -215h-131q-12 70 -12 156h-4q-58 -94 -140 -137.5t-198 -43.5q-88 0 -161.5 30.5 t-121 96t-47.5 154.5zM227 1155l224 295h163l224 -295h-136l-170 221l-170 -221h-135zM246 274q0 -88 66.5 -132t158.5 -44q141 0 216 87.5t75 222.5v69h-70q-446 0 -446 -203z" />
<glyph unicode="&#xe3;" horiz-adv-x="1062" d="M98 256q0 64 21.5 116t55.5 86t86 59t101.5 38.5t114 21t111.5 9.5t106 2h68v24q0 248 -246 248q-169 0 -293 -112l-82 96q136 139 406 139q151 0 250.5 -87t99.5 -253v-428q0 -113 16 -215h-131q-12 70 -12 156h-4q-58 -94 -140 -137.5t-198 -43.5q-88 0 -161.5 30.5 t-121 96t-47.5 154.5zM201 1180q36 213 188 213q58 0 150 -47q5 -2 20.5 -9.5t21.5 -10.5t19 -8.5t20.5 -8t18.5 -6t19.5 -4.5t17.5 -1q76 0 100 103h88q-36 -213 -188 -213q-50 0 -150 47q-88 47 -137 47q-76 0 -100 -102h-88zM246 274q0 -88 66.5 -132t158.5 -44 q141 0 216 87.5t75 222.5v69h-70q-446 0 -446 -203z" />
<glyph unicode="&#xe4;" horiz-adv-x="1062" d="M98 256q0 64 21.5 116t55.5 86t86 59t101.5 38.5t114 21t111.5 9.5t106 2h68v24q0 248 -246 248q-169 0 -293 -112l-82 96q136 139 406 139q151 0 250.5 -87t99.5 -253v-428q0 -113 16 -215h-131q-12 70 -12 156h-4q-58 -94 -140 -137.5t-198 -43.5q-88 0 -161.5 30.5 t-121 96t-47.5 154.5zM231 1325q0 41 30.5 73t74.5 32t74 -32t30 -73t-30 -72.5t-74 -31.5t-74.5 31.5t-30.5 72.5zM246 274q0 -88 66.5 -132t158.5 -44q141 0 216 87.5t75 222.5v69h-70q-446 0 -446 -203zM625 1325q0 41 30 73t74 32t74.5 -32t30.5 -73t-30.5 -72.5 t-74.5 -31.5t-74 31.5t-30 72.5z" />
<glyph unicode="&#xe5;" horiz-adv-x="1062" d="M98 256q0 64 21.5 116t55.5 86t86 59t101.5 38.5t114 21t111.5 9.5t106 2h68v24q0 248 -246 248q-169 0 -293 -112l-82 96q136 139 406 139q151 0 250.5 -87t99.5 -253v-428q0 -113 16 -215h-131q-12 70 -12 156h-4q-58 -94 -140 -137.5t-198 -43.5q-88 0 -161.5 30.5 t-121 96t-47.5 154.5zM246 274q0 -88 66.5 -132t158.5 -44q141 0 216 87.5t75 222.5v69h-70q-446 0 -446 -203zM336 1331q0 82 58 138.5t138 56.5q81 0 139 -56.5t58 -138.5t-58 -138t-139 -56t-138.5 56t-57.5 138zM410 1331q0 -51 35.5 -86t86.5 -35t87 35t36 86t-36 86 t-87 35t-86.5 -35t-35.5 -86z" />
<glyph unicode="&#xe6;" horiz-adv-x="1744" d="M98 256q0 74 28.5 129t73 86.5t109 50.5t124.5 25t132 6h228v59q-1 58 -20.5 103.5t-47 72t-62 43.5t-63 23t-53.5 6q-170 0 -291 -115l-84 99q149 139 381 139q108 0 195 -52t122 -132q45 83 141 133.5t201 50.5q138 -1 237.5 -65t148.5 -170.5t49 -243.5v-62h-719v-18 q0 -136 76.5 -231t203.5 -95q112 0 179 41t120 115l107 -84q-76 -97 -181 -146t-221 -49q-114 0 -211 57t-147 167q-71 -120 -172 -172t-254 -52q-88 0 -161.5 30.5t-121 96t-47.5 154.5zM246 274q0 -88 66.5 -132t158.5 -44q145 0 233.5 91t88.5 235v18h-281 q-47 0 -91 -8.5t-84.5 -26.5t-65.5 -52.5t-25 -80.5zM928 553h583q0 135 -80.5 221t-213.5 86q-122 0 -205.5 -88t-83.5 -219z" />
<glyph unicode="&#xe7;" horiz-adv-x="987" d="M98 479q0 221 139 364t369 140q100 -2 190.5 -43.5t159.5 -122.5l-110 -84q-36 55 -100 91t-140 36q-164 3 -262 -105t-98 -276t98 -276t262 -105q76 0 140 36t100 91l110 -84q-69 -81 -159.5 -122.5t-190.5 -43.5q-12 0 -14 2l-76 -100l4 -2q40 14 74 14 q65 0 111.5 -41.5t46.5 -111.5q0 -88 -71 -134t-165 -46q-108 0 -199 49l33 73q68 -36 152 -36q51 0 89 22.5t38 69.5q0 28 -23 55t-78 27q-42 0 -94 -23l-37 35l115 156q-191 26 -302.5 162.5t-111.5 332.5z" />
<glyph unicode="&#xe8;" d="M98 479q0 216 139.5 360t344.5 144q141 -1 246.5 -66.5t158.5 -173t53 -239.5v-62h-798q12 -146 111.5 -245t240.5 -99q101 0 182.5 48t124.5 118l105 -86q-160 -203 -412 -203q-214 0 -355 143.5t-141 360.5zM246 553h647q0 138 -83.5 222.5t-227.5 84.5 q-131 0 -233.5 -94t-102.5 -213zM303 1450h186l205 -295h-121z" />
<glyph unicode="&#xe9;" d="M98 479q0 216 139.5 360t344.5 144q141 -1 246.5 -66.5t158.5 -173t53 -239.5v-62h-798q12 -146 111.5 -245t240.5 -99q101 0 182.5 48t124.5 118l105 -86q-160 -203 -412 -203q-214 0 -355 143.5t-141 360.5zM246 553h647q0 138 -83.5 222.5t-227.5 84.5 q-131 0 -233.5 -94t-102.5 -213zM444 1155l205 295h187l-271 -295h-121z" />
<glyph unicode="&#xea;" d="M98 479q0 216 139.5 360t344.5 144q141 -1 246.5 -66.5t158.5 -173t53 -239.5v-62h-798q12 -146 111.5 -245t240.5 -99q101 0 182.5 48t124.5 118l105 -86q-160 -203 -412 -203q-214 0 -355 143.5t-141 360.5zM246 553h647q0 138 -83.5 222.5t-227.5 84.5 q-131 0 -233.5 -94t-102.5 -213zM264 1155l223 295h164l223 -295h-135l-170 221l-170 -221h-135z" />
<glyph unicode="&#xeb;" d="M98 479q0 216 139.5 360t344.5 144q141 -1 246.5 -66.5t158.5 -173t53 -239.5v-62h-798q12 -146 111.5 -245t240.5 -99q101 0 182.5 48t124.5 118l105 -86q-160 -203 -412 -203q-214 0 -355 143.5t-141 360.5zM246 553h647q0 138 -83.5 222.5t-227.5 84.5 q-131 0 -233.5 -94t-102.5 -213zM268 1325q0 41 30.5 73t74.5 32t74 -32t30 -73t-30 -72.5t-74 -31.5t-74.5 31.5t-30.5 72.5zM662 1325q0 41 30 73t74 32t74 -32t30 -73t-30 -72.5t-74 -31.5t-74 31.5t-30 72.5z" />
<glyph unicode="&#xec;" horiz-adv-x="491" d="M-20 1450h186l205 -295h-121zM178 0v958h135v-958h-135z" />
<glyph unicode="&#xed;" horiz-adv-x="491" d="M121 1155l205 295h186l-270 -295h-121zM178 0v958h135v-958h-135z" />
<glyph unicode="&#xee;" horiz-adv-x="491" d="M-59 1155l223 295h164l223 -295h-135l-170 221l-170 -221h-135zM178 0v958h135v-958h-135z" />
<glyph unicode="&#xef;" horiz-adv-x="491" d="M-55 1325q0 41 30 73t74 32t74.5 -32t30.5 -73t-30.5 -72.5t-74.5 -31.5t-74 31.5t-30 72.5zM178 0v958h135v-958h-135zM338 1325q0 41 30 73t74 32t74.5 -32t30.5 -73t-30.5 -72.5t-74.5 -31.5t-74 31.5t-30 72.5z" />
<glyph unicode="&#xf0;" horiz-adv-x="1214" d="M98 479q0 218 143 361t365 143q88 0 160.5 -28.5t146.5 -90.5l5 4q-75 142 -149.5 234.5t-176.5 183.5l-225 -117l-74 74l221 115q-107 101 -195 162l123 75q133 -108 199 -170l209 109l82 -72l-211 -110q198 -198 298 -398.5t97 -433.5q-1 -79 -15.5 -152t-51.5 -146 t-93 -126.5t-146 -87t-204 -33.5q-222 0 -365 143t-143 361zM246 479q0 -165 98.5 -273t261.5 -108q164 0 263.5 108t99.5 273t-99.5 273t-263.5 108q-163 0 -261.5 -108t-98.5 -273z" />
<glyph unicode="&#xf1;" d="M137 958h139q7 -60 7 -153h4q44 78 134.5 128t186.5 50q180 0 270.5 -97t90.5 -278v-608h-135v530q0 168 -58 249t-203 81q-10 0 -25.5 -2t-44.5 -10t-56.5 -22t-58 -42.5t-53 -65.5t-37.5 -95.5t-15 -130.5v-492h-136v748q0 35 -10 210zM238 1180q36 213 188 213 q57 0 149 -47q4 -2 18 -8.5t19 -9t17 -7.5t18.5 -7.5t16.5 -6t17 -5t15.5 -3t16.5 -1.5q76 0 100 103h88q-36 -213 -188 -213q-50 0 -150 47q-88 47 -137 47q-76 0 -100 -102h-88z" />
<glyph unicode="&#xf2;" horiz-adv-x="1214" d="M98 479q0 218 143 361t365 143q223 0 366.5 -143t143.5 -361t-143.5 -361t-366.5 -143q-222 0 -365 143t-143 361zM246 479q0 -165 98.5 -273t261.5 -108q164 0 263.5 108t99.5 273t-99.5 273t-263.5 108q-163 0 -261.5 -108t-98.5 -273zM342 1450h186l205 -295h-121z " />
<glyph unicode="&#xf3;" horiz-adv-x="1214" d="M98 479q0 218 143 361t365 143q223 0 366.5 -143t143.5 -361t-143.5 -361t-366.5 -143q-222 0 -365 143t-143 361zM246 479q0 -165 98.5 -273t261.5 -108q164 0 263.5 108t99.5 273t-99.5 273t-263.5 108q-163 0 -261.5 -108t-98.5 -273zM483 1155l205 295h186l-270 -295 h-121z" />
<glyph unicode="&#xf4;" horiz-adv-x="1214" d="M98 479q0 218 143 361t365 143q223 0 366.5 -143t143.5 -361t-143.5 -361t-366.5 -143q-222 0 -365 143t-143 361zM246 479q0 -165 98.5 -273t261.5 -108q164 0 263.5 108t99.5 273t-99.5 273t-263.5 108q-163 0 -261.5 -108t-98.5 -273zM303 1155l223 295h164l223 -295 h-135l-170 221l-170 -221h-135z" />
<glyph unicode="&#xf5;" horiz-adv-x="1214" d="M98 479q0 218 143 361t365 143q223 0 366.5 -143t143.5 -361t-143.5 -361t-366.5 -143q-222 0 -365 143t-143 361zM246 479q0 -165 98.5 -273t261.5 -108q164 0 263.5 108t99.5 273t-99.5 273t-263.5 108q-163 0 -261.5 -108t-98.5 -273zM276 1180q36 213 189 213 q57 0 149 -47q4 -2 18 -8.5t19 -9t17 -7.5t18.5 -7.5t16.5 -6t17 -5t15.5 -3t16.5 -1.5q76 0 100 103h88q-36 -213 -188 -213q-50 0 -150 47q-88 47 -137 47q-76 0 -100 -102h-89z" />
<glyph unicode="&#xf6;" horiz-adv-x="1214" d="M98 479q0 218 143 361t365 143q223 0 366.5 -143t143.5 -361t-143.5 -361t-366.5 -143q-222 0 -365 143t-143 361zM246 479q0 -165 98.5 -273t261.5 -108q164 0 263.5 108t99.5 273t-99.5 273t-263.5 108q-163 0 -261.5 -108t-98.5 -273zM307 1325q0 41 30.5 73t74.5 32 t74 -32t30 -73t-30 -72.5t-74 -31.5t-74.5 31.5t-30.5 72.5zM700 1325q0 41 30.5 73t74.5 32t74 -32t30 -73t-30 -72.5t-74 -31.5t-74.5 31.5t-30.5 72.5z" />
<glyph unicode="&#xf7;" horiz-adv-x="1363" d="M160 559v123h1044v-123h-1044zM571 289q0 44 31.5 77t79.5 33t79.5 -33t31.5 -77t-31.5 -77.5t-79.5 -33.5t-79.5 33.5t-31.5 77.5zM571 952q0 44 31.5 77.5t79.5 33.5t79.5 -33.5t31.5 -77.5t-31.5 -77t-79.5 -33t-79.5 33t-31.5 77z" />
<glyph unicode="&#xf8;" horiz-adv-x="1214" d="M82 6l135 139q-119 138 -119 334q0 218 143 361t365 143q189 0 326 -106l135 139l66 -64l-136 -139q119 -135 119 -334q0 -218 -143.5 -361t-366.5 -143q-188 0 -321 107l-138 -139zM246 479q0 -139 69 -233l523 534q-93 80 -232 80q-163 0 -261.5 -108t-98.5 -273z M377 176q94 -78 229 -78q164 0 263.5 108t99.5 273q0 131 -70 234z" />
<glyph unicode="&#xf9;" d="M147 350v608h136v-530q0 -168 57.5 -249t202.5 -81q10 0 25.5 2t44.5 10.5t57 22.5t58.5 42t53 65.5t37.5 96t15 130.5v491h135v-747q0 -36 10 -211h-139q-6 51 -6 154h-5q-44 -78 -135 -128.5t-186 -50.5q-180 0 -270.5 97t-90.5 278zM303 1450h186l205 -295h-121z" />
<glyph unicode="&#xfa;" d="M147 350v608h136v-530q0 -168 57.5 -249t202.5 -81q10 0 25.5 2t44.5 10.5t57 22.5t58.5 42t53 65.5t37.5 96t15 130.5v491h135v-747q0 -36 10 -211h-139q-6 51 -6 154h-5q-44 -78 -135 -128.5t-186 -50.5q-180 0 -270.5 97t-90.5 278zM444 1155l205 295h187l-271 -295 h-121z" />
<glyph unicode="&#xfb;" d="M147 350v608h136v-530q0 -168 57.5 -249t202.5 -81q10 0 25.5 2t44.5 10.5t57 22.5t58.5 42t53 65.5t37.5 96t15 130.5v491h135v-747q0 -36 10 -211h-139q-6 51 -6 154h-5q-44 -78 -135 -128.5t-186 -50.5q-180 0 -270.5 97t-90.5 278zM264 1155l223 295h164l223 -295 h-135l-170 221l-170 -221h-135z" />
<glyph unicode="&#xfc;" d="M147 350v608h136v-530q0 -168 57.5 -249t202.5 -81q10 0 25.5 2t44.5 10.5t57 22.5t58.5 42t53 65.5t37.5 96t15 130.5v491h135v-747q0 -36 10 -211h-139q-6 51 -6 154h-5q-44 -78 -135 -128.5t-186 -50.5q-180 0 -270.5 97t-90.5 278zM268 1325q0 41 30.5 73t74.5 32 t74 -32t30 -73t-30 -72.5t-74 -31.5t-74.5 31.5t-30.5 72.5zM662 1325q0 41 30 73t74 32t74 -32t30 -73t-30 -72.5t-74 -31.5t-74 31.5t-30 72.5z" />
<glyph unicode="&#xfd;" horiz-adv-x="987" d="M33 958h170l301 -792l293 792h164l-480 -1208q-47 -120 -115.5 -181t-185.5 -61q-74 0 -125 15l15 131q45 -23 102 -23q67 0 109 42.5t75 129.5l70 185zM369 1155l204 295h187l-271 -295h-120z" />
<glyph unicode="&#xfe;" horiz-adv-x="1251" d="M147 -467v2015h136v-768h4q148 203 372 203q223 0 366.5 -143t143.5 -361t-143.5 -361t-366.5 -143q-104 0 -207 47t-165 138h-4v-627h-136zM276 479q0 -164 105.5 -272.5t277.5 -108.5q164 0 263.5 108t99.5 273t-99.5 273t-263.5 108q-165 0 -274 -109.5t-109 -271.5z " />
<glyph unicode="&#xff;" horiz-adv-x="987" d="M33 958h170l301 -792l293 792h164l-480 -1208q-47 -120 -115.5 -181t-185.5 -61q-74 0 -125 15l15 131q45 -23 102 -23q67 0 109 42.5t75 129.5l70 185zM193 1325q0 41 30 73t74 32t74 -32t30 -73t-30 -72.5t-74 -31.5t-74 31.5t-30 72.5zM586 1325q0 41 30 73t74 32 t74.5 -32t30.5 -73t-30.5 -72.5t-74.5 -31.5t-74 31.5t-30 72.5z" />
<glyph unicode="&#x152;" horiz-adv-x="1933" d="M129 727q0 142 45 262t121.5 203.5t178 142.5t214.5 87t232 28h895v-135h-603v-494h578v-135h-578v-551h627v-135h-915q-168 0 -305.5 46t-226.5 119.5t-150 170.5t-87 195t-26 196zM289 721q0 -41 6.5 -87t25.5 -104t48.5 -112t79 -106.5t113 -91t156 -62t202.5 -23.5 h145v1180h-117q-142 0 -262 -38.5t-208.5 -112t-138.5 -187t-50 -256.5z" />
<glyph unicode="&#x153;" horiz-adv-x="1888" d="M98 479q0 216 140 360t346 144q126 0 233.5 -52.5t171.5 -162.5q71 108 157.5 161.5t209.5 53.5q138 -1 237.5 -65t148 -170.5t48.5 -243.5v-62h-719v-18q0 -136 76.5 -231t204.5 -95q112 0 179 41t120 115l106 -84q-76 -97 -180.5 -146t-220.5 -49q-121 0 -219.5 55.5 t-153.5 162.5q-74 -109 -185.5 -163.5t-213.5 -54.5q-217 0 -351.5 142.5t-134.5 361.5zM246 479q0 -163 95 -272t243 -109q159 0 249.5 109.5t90.5 271.5t-90.5 271.5t-249.5 109.5q-148 0 -243 -109t-95 -272zM1071 553h584q0 135 -81 221t-214 86q-122 0 -205.5 -88 t-83.5 -219z" />
<glyph unicode="&#x178;" horiz-adv-x="1175" d="M-29 1450h185l432 -684l432 684h184l-542 -825v-625h-148v625zM287 1683q0 41 30 73t74 32t74.5 -32t30.5 -73t-30.5 -72.5t-74.5 -31.5t-74 31.5t-30 72.5zM680 1683q0 41 30 73t74 32t74.5 -32t30.5 -73t-30.5 -72.5t-74.5 -31.5t-74 31.5t-30 72.5z" />
<glyph unicode="&#x2c6;" horiz-adv-x="491" d="M-59 1155l223 295h164l223 -295h-135l-170 221l-170 -221h-135z" />
<glyph unicode="&#x2dc;" horiz-adv-x="491" d="M-86 1180q36 213 188 213q58 0 150 -47q5 -2 20.5 -9.5t21.5 -10.5t19 -8.5t20.5 -8t18.5 -6t19.5 -4.5t17.5 -1q76 0 100 103h89q-36 -213 -189 -213q-48 0 -145 47t-142 47q-76 0 -100 -102h-88z" />
<glyph unicode="&#x2000;" horiz-adv-x="942" />
<glyph unicode="&#x2001;" horiz-adv-x="1884" />
<glyph unicode="&#x2002;" horiz-adv-x="942" />
<glyph unicode="&#x2003;" horiz-adv-x="1884" />
<glyph unicode="&#x2004;" horiz-adv-x="628" />
<glyph unicode="&#x2005;" horiz-adv-x="471" />
<glyph unicode="&#x2006;" horiz-adv-x="314" />
<glyph unicode="&#x2007;" horiz-adv-x="314" />
<glyph unicode="&#x2008;" horiz-adv-x="235" />
<glyph unicode="&#x2009;" horiz-adv-x="376" />
<glyph unicode="&#x200a;" horiz-adv-x="104" />
<glyph unicode="&#x2010;" horiz-adv-x="681" d="M78 424v135h526v-135h-526z" />
<glyph unicode="&#x2011;" horiz-adv-x="681" d="M78 424v135h526v-135h-526z" />
<glyph unicode="&#x2012;" horiz-adv-x="681" d="M78 424v135h526v-135h-526z" />
<glyph unicode="&#x2013;" horiz-adv-x="1024" d="M0 424v135h1024v-135h-1024z" />
<glyph unicode="&#x2014;" horiz-adv-x="2048" d="M0 424v135h2048v-135h-2048z" />
<glyph unicode="&#x2018;" horiz-adv-x="532" d="M115 969l166 481h137l-137 -481h-166z" />
<glyph unicode="&#x2019;" horiz-adv-x="532" d="M115 969l137 481h166l-166 -481h-137z" />
<glyph unicode="&#x201a;" horiz-adv-x="532" d="M115 -287l137 482h166l-166 -482h-137z" />
<glyph unicode="&#x201c;" horiz-adv-x="1062" d="M195 969l165 481h138l-138 -481h-165zM565 969l166 481h137l-137 -481h-166z" />
<glyph unicode="&#x201d;" horiz-adv-x="1062" d="M195 969l137 481h166l-166 -481h-137zM565 969l137 481h166l-166 -481h-137z" />
<glyph unicode="&#x201e;" horiz-adv-x="1062" d="M195 -287l137 482h166l-166 -482h-137zM565 -287l137 482h166l-166 -482h-137z" />
<glyph unicode="&#x2022;" horiz-adv-x="1024" d="M150 725q0 151 105.5 256.5t256.5 105.5t256.5 -105.5t105.5 -256.5t-105.5 -257t-256.5 -106t-256.5 106t-105.5 257z" />
<glyph unicode="&#x2026;" horiz-adv-x="2048" d="M231 98q0 44 31.5 77.5t79.5 33.5t79.5 -33.5t31.5 -77.5t-31.5 -77t-79.5 -33t-79.5 33t-31.5 77zM913 98q0 44 31.5 77.5t79.5 33.5t79.5 -33.5t31.5 -77.5t-31.5 -77t-79.5 -33t-79.5 33t-31.5 77zM1595 98q0 44 31.5 77.5t79.5 33.5t79.5 -33.5t31.5 -77.5t-31.5 -77 t-79.5 -33t-79.5 33t-31.5 77z" />
<glyph unicode="&#x202f;" horiz-adv-x="376" />
<glyph unicode="&#x2039;" horiz-adv-x="645" d="M121 492l287 428l96 -68l-236 -360l236 -361l-96 -68z" />
<glyph unicode="&#x203a;" horiz-adv-x="645" d="M141 131l236 361l-236 360l97 68l286 -428l-286 -429z" />
<glyph unicode="&#x205f;" horiz-adv-x="471" />
<glyph unicode="&#x20ac;" d="M47 477l41 113h100q-4 78 -4 119q0 79 6 149h-141l41 115h117q50 250 191.5 376t346.5 126q83 0 173 -24t143 -58l-43 -127q-107 80 -275 80q-307 0 -381 -373h580l-35 -115h-563q-6 -74 -6 -156q0 -34 4 -112h492l-37 -113h-443q65 -379 348 -379q80 0 150 37t106 94 l97 -69q-55 -90 -155.5 -137.5t-215.5 -47.5q-107 0 -192.5 36.5t-143.5 104.5t-94 158t-53 203h-154z" />
<glyph unicode="&#x2122;" horiz-adv-x="2048" d="M147 1339v111h674v-111h-272v-733h-123v733h-279zM997 606v844h191l264 -647l264 647h185v-844h-123v709h-4l-285 -709h-80l-285 709h-4v-709h-123z" />
<glyph unicode="&#xe000;" horiz-adv-x="962" d="M0 0v963h963v-963h-963z" />
<glyph unicode="&#xfb01;" horiz-adv-x="1099" d="M29 836v122h202v263q0 352 322 352q49 0 117 -14l-25 -123q-58 14 -104 14q-54 0 -90 -18t-53.5 -54t-24 -76t-6.5 -98v-246h227v-122h-227v-836h-136v836h-202zM756 1327q0 41 30 69.5t68 28.5t68 -28.5t30 -69.5t-30 -69.5t-68 -28.5t-68 28.5t-30 69.5zM786 0v958h136 v-958h-136z" />
<glyph unicode="&#xfb02;" horiz-adv-x="1099" d="M29 836v122h202v263q0 352 322 352q49 0 117 -14l-25 -123q-58 14 -104 14q-54 0 -90 -18t-53.5 -54t-24 -76t-6.5 -98v-246h227v-122h-227v-836h-136v836h-202zM786 0v1548h136v-1548h-136z" />
</font>
</defs>
</svg>
